<svg xmlns="http://www.w3.org/2000/svg" viewBox="0 0 128 128" fill="none">
  <rect width="128" height="128" rx="28" fill="#1f2124"/>
  <rect x="16" y="16" width="96" height="96" rx="22" fill="#f7f4ee"/>
  <path d="M48 36h18c12.15 0 20 5.54 20 15.84 0 6.96-3.67 11.7-9.96 13.64 7.38 1.44 11.76 6.7 11.76 14.84C87.8 92.06 79.58 98 66.72 98H48V36Zm16.64 25.12c5.9 0 9.12-2.34 9.12-6.82 0-4.42-3.28-6.62-9.12-6.62H59.6v13.44h5.04Zm1.32 24.84c6.7 0 10.34-2.56 10.34-7.54 0-4.86-3.64-7.28-10.34-7.28H59.6v14.82h6.36Z" fill="#b97e27"/>
  <path d="M48 28h8v72h-8zm24 0h8v72h-8z" fill="#b97e27" opacity=".72"/>
</svg>
